<svg width="58" height="58" viewBox="0 0 58 58" fill="none" xmlns="http://www.w3.org/2000/svg">
<g filter="url(#filter0_d_1_226)">
<circle cx="29" cy="23" r="15" fill="white"/>
</g>
<path d="M29.4583 19.6667C30.2208 19.6667 30.9521 19.9696 31.4913 20.5087C32.0304 21.0479 32.3333 21.7792 32.3333 22.5417C32.3333 22.7958 32.4343 23.0396 32.614 23.2193C32.7937 23.399 33.0375 23.5 33.2917 23.5C33.5458 23.5 33.7896 23.399 33.9693 23.2193C34.149 23.0396 34.25 22.7958 34.25 22.5417C34.25 21.2708 33.7452 20.0521 32.8466 19.1534C31.9479 18.2548 30.7292 17.75 29.4583 17.75C29.2042 17.75 28.9604 17.851 28.7807 18.0307C28.601 18.2104 28.5 18.4542 28.5 18.7083C28.5 18.9625 28.601 19.2063 28.7807 19.386C28.9604 19.5657 29.2042 19.6667 29.4583 19.6667Z" fill="#4680C2"/>
<path d="M29.4583 15.8334C31.2375 15.8334 32.9438 16.5402 34.2018 17.7982C35.4599 19.0563 36.1667 20.7626 36.1667 22.5417C36.1667 22.7959 36.2676 23.0397 36.4473 23.2194C36.6271 23.3991 36.8708 23.5001 37.125 23.5001C37.3792 23.5001 37.6229 23.3991 37.8026 23.2194C37.9824 23.0397 38.0833 22.7959 38.0833 22.5417C38.0833 20.2543 37.1746 18.0605 35.5571 16.443C33.9396 14.8255 31.7458 13.9167 29.4583 13.9167C29.2042 13.9167 28.9604 14.0177 28.7807 14.1974C28.601 14.3772 28.5 14.6209 28.5 14.8751C28.5 15.1292 28.601 15.373 28.7807 15.5527C28.9604 15.7324 29.2042 15.8334 29.4583 15.8334ZM37.8437 27.2472C37.791 27.0933 37.7 26.9554 37.5793 26.8464C37.4586 26.7375 37.3122 26.661 37.1537 26.6242L31.4037 25.3113C31.2477 25.2759 31.0852 25.2802 30.9312 25.3237C30.7772 25.3673 30.6365 25.4487 30.5221 25.5605C30.3879 25.6851 30.3783 25.6947 29.7554 26.883C27.6885 25.9306 26.0323 24.2676 25.0883 22.1967C26.3054 21.5834 26.315 21.5834 26.4396 21.4397C26.5514 21.3252 26.6328 21.1845 26.6763 21.0305C26.7199 20.8765 26.7241 20.7141 26.6887 20.558L25.3758 14.8751C25.3391 14.7167 25.2626 14.5702 25.1536 14.4495C25.0447 14.3288 24.9068 14.2378 24.7529 14.1851C24.5291 14.1051 24.298 14.0474 24.0629 14.0126C23.8207 13.9564 23.5735 13.9243 23.325 13.9167C22.1558 13.9167 21.0346 14.3812 20.2078 15.2079C19.3811 16.0346 18.9167 17.1559 18.9167 18.3251C18.9217 22.2377 20.4782 25.9886 23.2449 28.7552C26.0115 31.5218 29.7624 33.0783 33.675 33.0834C34.2539 33.0834 34.8271 32.9694 35.362 32.7479C35.8968 32.5263 36.3828 32.2016 36.7922 31.7922C37.2015 31.3829 37.5262 30.8969 37.7478 30.3621C37.9693 29.8272 38.0833 29.254 38.0833 28.6751C38.0836 28.4312 38.0644 28.1876 38.0258 27.9467C37.9855 27.7087 37.9246 27.4746 37.8437 27.2472ZM33.675 31.1667C30.2699 31.1642 27.0051 29.8104 24.5974 27.4027C22.1896 24.995 20.8359 21.7301 20.8333 18.3251C20.8358 17.665 21.0992 17.0327 21.5659 16.566C22.0326 16.0993 22.6649 15.8359 23.325 15.8334H23.6412L24.6667 20.2801L24.1492 20.5484C23.325 20.9797 22.6733 21.3247 23.0183 22.0722C23.5801 23.6626 24.4891 25.1079 25.6794 26.3031C26.8696 27.4983 28.3111 28.4133 29.8992 28.9817C30.7042 29.3076 31.0204 28.7038 31.4517 27.8701L31.7296 27.343L36.1667 28.3588V28.6751C36.1641 29.3351 35.9008 29.9674 35.4341 30.4342C34.9673 30.9009 34.335 31.1642 33.675 31.1667Z" fill="#4680C2"/>
<defs>
<filter id="filter0_d_1_226" x="0" y="0" width="58" height="58" filterUnits="userSpaceOnUse" color-interpolation-filters="sRGB">
<feFlood flood-opacity="0" result="BackgroundImageFix"/>
<feColorMatrix in="SourceAlpha" type="matrix" values="0 0 0 0 0 0 0 0 0 0 0 0 0 0 0 0 0 0 127 0" result="hardAlpha"/>
<feOffset dy="6"/>
<feGaussianBlur stdDeviation="7"/>
<feComposite in2="hardAlpha" operator="out"/>
<feColorMatrix type="matrix" values="0 0 0 0 0.6375 0 0 0 0 0.6375 0 0 0 0 0.6375 0 0 0 0.25 0"/>
<feBlend mode="normal" in2="BackgroundImageFix" result="effect1_dropShadow_1_226"/>
<feBlend mode="normal" in="SourceGraphic" in2="effect1_dropShadow_1_226" result="shape"/>
</filter>
</defs>
</svg>
